<?xml version="1.0" encoding="UTF-8"?>
<svg xmlns="http://www.w3.org/2000/svg" xmlns:xlink="http://www.w3.org/1999/xlink" width="289.431pt" height="123.082pt" viewBox="0 0 289.431 123.082">
<path fill-rule="nonzero" fill="rgb(13.725281%, 12.156677%, 12.548828%)" fill-opacity="1" d="M 160.65625 45.066406 C 160.234375 56.59375 160.359375 68.136719 161.03125 79.65625 C 161.21875 82.828125 166.179688 82.851562 165.996094 79.65625 C 165.324219 68.136719 165.199219 56.59375 165.617188 45.066406 C 165.734375 41.871094 160.773438 41.878906 160.65625 45.066406 "/>
<path fill-rule="nonzero" fill="rgb(13.725281%, 12.156677%, 12.548828%)" fill-opacity="1" d="M 163.550781 47.105469 C 168.703125 46.976562 176.050781 46.667969 179.136719 51.804688 C 180.152344 53.496094 180.398438 55.953125 179.144531 57.601562 C 177.710938 59.484375 174.792969 59.699219 172.632812 59.921875 C 171.300781 60.054688 170.152344 60.960938 170.152344 62.402344 C 170.152344 63.667969 171.289062 64.980469 172.632812 64.882812 C 175.152344 64.699219 178.140625 64.363281 180.457031 65.605469 C 182.398438 66.644531 183.125 68.722656 182.867188 70.792969 C 182.261719 75.664062 176.71875 77.464844 172.429688 76.554688 C 169.316406 75.894531 167.984375 80.679688 171.109375 81.34375 C 178.464844 82.898438 186.917969 79.289062 187.796875 71.117188 C 188.175781 67.582031 186.804688 64.050781 183.910156 61.933594 C 180.683594 59.570312 176.4375 59.640625 172.632812 59.921875 L 172.632812 64.882812 C 176.304688 64.507812 180.347656 63.929688 182.839844 60.886719 C 185.125 58.09375 185.488281 54.132812 184.15625 50.832031 C 180.851562 42.65625 171.109375 41.953125 163.550781 42.144531 C 160.363281 42.222656 160.351562 47.1875 163.550781 47.105469 "/>
<path fill-rule="nonzero" fill="rgb(13.725281%, 12.156677%, 12.548828%)" fill-opacity="1" d="M 217.957031 41.4375 C 210.710938 42.492188 205.378906 49.078125 204.296875 56.066406 C 203.140625 63.53125 205.511719 72.558594 211.433594 77.585938 C 214.304688 80.027344 218.074219 81.648438 221.902344 81.386719 C 225.605469 81.128906 229.027344 79.300781 231.46875 76.527344 C 236.558594 70.757812 237.734375 61.644531 236.175781 54.308594 C 235.316406 50.277344 233.230469 46.550781 229.867188 44.109375 C 226.664062 41.78125 222.503906 41.007812 218.617188 41.351562 C 217.28125 41.46875 216.136719 42.40625 216.136719 43.832031 C 216.136719 45.082031 217.273438 46.433594 218.617188 46.3125 C 221.230469 46.085938 223.886719 46.324219 226.203125 47.644531 C 228.445312 48.917969 229.964844 51.042969 230.792969 53.46875 C 231.773438 56.335938 231.929688 59.359375 231.703125 62.363281 C 231.472656 65.40625 230.804688 68.527344 229.253906 71.183594 C 228 73.332031 226.074219 75.238281 223.671875 76.039062 C 220.996094 76.925781 218.191406 76.25 215.867188 74.75 C 211.007812 71.613281 208.855469 64.859375 208.953125 59.339844 C 209.066406 53.144531 212.828125 47.160156 219.277344 46.222656 C 220.605469 46.03125 221.332031 44.347656 221.011719 43.171875 C 220.621094 41.746094 219.289062 41.246094 217.957031 41.4375 "/>
<path fill-rule="nonzero" fill="rgb(37.646484%, 74.118042%, 46.273804%)" fill-opacity="1" d="M 60.320312 60.269531 C 66.710938 67.203125 73.046875 74.191406 79.320312 81.234375 C 80.214844 82.234375 81.921875 82.144531 82.832031 81.234375 C 83.824219 80.238281 83.726562 78.726562 82.832031 77.726562 C 76.554688 70.683594 70.222656 63.695312 63.828125 56.757812 C 62.917969 55.773438 61.238281 55.839844 60.320312 56.757812 C 59.335938 57.742188 59.40625 59.277344 60.320312 60.269531 "/>
<path fill-rule="nonzero" fill="rgb(37.646484%, 74.118042%, 46.273804%)" fill-opacity="1" d="M 90.746094 46.367188 C 91.714844 57.644531 92.292969 68.953125 92.480469 80.269531 C 92.535156 83.460938 97.496094 83.46875 97.445312 80.269531 C 97.253906 68.953125 96.675781 57.644531 95.710938 46.367188 C 95.59375 45.03125 94.652344 43.882812 93.226562 43.882812 C 91.976562 43.882812 90.632812 45.023438 90.746094 46.367188 "/>
<path fill-rule="nonzero" fill="rgb(37.646484%, 74.118042%, 46.273804%)" fill-opacity="1" d="M 94.257812 48.871094 C 100.160156 49.097656 106.066406 49.1875 111.96875 49.144531 C 113.3125 49.136719 114.453125 48.011719 114.453125 46.664062 C 114.453125 45.324219 113.316406 44.171875 111.96875 44.183594 C 106.066406 44.226562 100.160156 44.136719 94.257812 43.910156 C 92.917969 43.859375 91.777344 45.085938 91.777344 46.390625 C 91.777344 47.777344 92.914062 48.820312 94.257812 48.871094 "/>
<path fill-rule="nonzero" fill="rgb(37.646484%, 74.118042%, 46.273804%)" fill-opacity="1" d="M 95.90625 64.472656 C 100.222656 64.429688 104.5625 64.257812 108.878906 64.378906 C 110.179688 64.414062 111.417969 63.210938 111.359375 61.898438 C 111.300781 60.519531 110.269531 59.453125 108.878906 59.414062 C 104.5625 59.292969 100.222656 59.46875 95.90625 59.507812 C 94.609375 59.523438 93.363281 60.640625 93.421875 61.992188 C 93.484375 63.324219 94.515625 64.488281 95.90625 64.472656 "/>
<path fill-rule="nonzero" fill="rgb(37.646484%, 74.118042%, 46.273804%)" fill-opacity="1" d="M 94.960938 83.355469 C 100.632812 83.402344 106.300781 83.449219 111.96875 83.496094 C 113.3125 83.507812 114.449219 82.347656 114.449219 81.015625 C 114.449219 79.660156 113.316406 78.546875 111.96875 78.535156 C 106.300781 78.488281 100.632812 78.441406 94.960938 78.390625 C 93.621094 78.382812 92.480469 79.539062 92.480469 80.875 C 92.480469 82.230469 93.617188 83.34375 94.960938 83.355469 "/>
<path fill-rule="nonzero" fill="rgb(37.646484%, 74.118042%, 46.273804%)" fill-opacity="1" d="M 177.839844 28.261719 C 178.820312 31.15625 180.589844 33.582031 182.613281 35.839844 C 184.445312 37.882812 186.378906 40.15625 188.960938 41.246094 C 190.574219 41.925781 192.652344 42.234375 194.136719 41.085938 C 195.871094 39.746094 195.792969 37.628906 195.054688 35.761719 C 193.894531 32.808594 191.75 30.578125 189.191406 28.765625 C 187.898438 27.847656 186.511719 27.0625 185.117188 26.304688 C 184.300781 25.859375 183.425781 25.421875 182.511719 25.222656 C 181.242188 24.949219 180.164062 25.117188 178.984375 25.632812 C 177.855469 26.128906 177.34375 28.050781 178.09375 29.03125 C 178.199219 29.167969 178.304688 29.304688 178.410156 29.445312 C 178.820312 29.980469 179.214844 30.398438 179.894531 30.585938 C 180.488281 30.75 181.277344 30.675781 181.804688 30.335938 C 182.820312 29.679688 183.539062 28.042969 182.695312 26.941406 C 182.589844 26.800781 182.484375 26.664062 182.378906 26.523438 C 182.082031 27.65625 181.785156 28.789062 181.488281 29.917969 C 181.292969 30.003906 181.210938 29.984375 181.027344 30.039062 C 181.140625 30.007812 181.328125 30.042969 181.4375 30.039062 C 181.371094 30.039062 181.046875 29.933594 181.296875 30.03125 C 181.425781 30.085938 181.574219 30.105469 181.710938 30.152344 C 181.777344 30.171875 182.199219 30.347656 181.929688 30.226562 C 181.675781 30.113281 182.007812 30.269531 182.035156 30.285156 C 182.328125 30.4375 182.621094 30.59375 182.914062 30.753906 C 183.9375 31.320312 184.957031 31.898438 185.941406 32.542969 C 186.382812 32.832031 186.816406 33.132812 187.234375 33.453125 C 186.898438 33.195312 187.207031 33.433594 187.265625 33.484375 C 187.378906 33.585938 187.5 33.679688 187.613281 33.777344 C 187.820312 33.957031 188.023438 34.140625 188.21875 34.332031 C 188.59375 34.691406 188.921875 35.085938 189.269531 35.46875 C 189.519531 35.738281 189.054688 35.152344 189.261719 35.453125 C 189.320312 35.539062 189.382812 35.621094 189.441406 35.703125 C 189.617188 35.957031 189.785156 36.214844 189.9375 36.484375 C 190.058594 36.6875 190.164062 36.902344 190.273438 37.113281 C 190.484375 37.523438 190.304688 37.171875 190.269531 37.082031 C 190.320312 37.207031 190.371094 37.335938 190.414062 37.464844 C 190.492188 37.683594 190.527344 37.9375 190.621094 38.148438 C 190.757812 38.457031 190.636719 37.742188 190.625 38.082031 C 190.625 38.273438 190.636719 38.214844 190.664062 37.902344 C 190.78125 37.691406 190.898438 37.484375 191.015625 37.277344 C 191.046875 37.242188 192.035156 36.796875 191.484375 36.9375 C 191.535156 36.925781 191.9375 36.9375 191.691406 36.894531 C 191.613281 36.878906 191.210938 36.863281 191.554688 36.898438 C 191.898438 36.9375 191.488281 36.878906 191.402344 36.859375 C 191.210938 36.8125 190.914062 36.777344 190.753906 36.65625 C 190.800781 36.691406 191.238281 36.90625 190.816406 36.671875 C 190.671875 36.59375 190.527344 36.523438 190.386719 36.4375 C 190.1875 36.320312 190.003906 36.1875 189.808594 36.0625 C 189.714844 36 189.460938 35.765625 189.832031 36.085938 C 189.730469 36 189.625 35.917969 189.523438 35.828125 C 189.113281 35.476562 188.726562 35.097656 188.347656 34.710938 C 187.613281 33.960938 186.894531 33.191406 186.191406 32.410156 C 185.785156 31.957031 185.386719 31.5 185.003906 31.03125 C 184.914062 30.917969 184.828125 30.808594 184.738281 30.695312 C 184.554688 30.472656 184.941406 30.984375 184.671875 30.609375 C 184.507812 30.375 184.339844 30.148438 184.179688 29.914062 C 183.824219 29.390625 183.496094 28.851562 183.199219 28.289062 C 183.070312 28.039062 182.957031 27.785156 182.832031 27.53125 C 183.042969 27.960938 182.875 27.640625 182.839844 27.542969 C 182.765625 27.34375 182.691406 27.144531 182.625 26.941406 C 182.210938 25.714844 180.898438 24.78125 179.570312 25.210938 C 178.351562 25.605469 177.394531 26.945312 177.839844 28.261719 "/>
<path fill-rule="nonzero" fill="rgb(37.646484%, 74.118042%, 46.273804%)" fill-opacity="1" d="M 183.519531 34.074219 C 185.320312 35.773438 187.121094 37.472656 188.921875 39.171875 C 189.394531 39.613281 190.019531 39.898438 190.675781 39.898438 C 191.285156 39.898438 192.011719 39.625 192.433594 39.171875 C 192.867188 38.695312 193.1875 38.074219 193.160156 37.414062 C 193.128906 36.769531 192.914062 36.117188 192.433594 35.660156 C 190.632812 33.960938 188.832031 32.265625 187.03125 30.566406 C 186.558594 30.121094 185.929688 29.839844 185.277344 29.839844 C 184.667969 29.839844 183.941406 30.109375 183.519531 30.566406 C 183.085938 31.039062 182.765625 31.660156 182.792969 32.320312 C 182.824219 32.96875 183.039062 33.621094 183.519531 34.074219 "/>
<path fill-rule="nonzero" fill="rgb(37.646484%, 74.118042%, 46.273804%)" fill-opacity="1" d="M 196.792969 38.273438 C 196.925781 37.867188 197.074219 37.464844 197.226562 37.066406 C 197.070312 37.476562 197.246094 37.03125 197.316406 36.875 C 197.390625 36.710938 197.464844 36.550781 197.546875 36.390625 C 197.90625 35.65625 198.316406 34.945312 198.769531 34.261719 C 199.007812 33.90625 199.253906 33.554688 199.515625 33.21875 C 199.300781 33.496094 199.464844 33.289062 199.59375 33.132812 C 199.730469 32.96875 199.867188 32.804688 200.007812 32.644531 C 200.550781 32.027344 201.128906 31.445312 201.746094 30.898438 C 202.035156 30.636719 202.339844 30.386719 202.644531 30.140625 C 202.785156 30.03125 202.757812 30.050781 202.566406 30.203125 C 202.652344 30.136719 202.738281 30.074219 202.828125 30.011719 C 202.972656 29.90625 203.117188 29.804688 203.265625 29.703125 C 203.96875 29.21875 204.707031 28.78125 205.46875 28.394531 C 205.628906 28.3125 205.789062 28.234375 205.949219 28.15625 C 206.015625 28.128906 206.613281 27.851562 206.335938 27.976562 C 206.039062 28.109375 206.574219 27.878906 206.632812 27.859375 C 206.832031 27.78125 207.03125 27.707031 207.234375 27.636719 C 208.042969 27.351562 208.871094 27.132812 209.710938 26.960938 C 210.984375 26.699219 211.835938 25.125 211.441406 23.90625 C 211.007812 22.558594 209.753906 21.894531 208.390625 22.175781 C 200.769531 23.734375 194.417969 29.613281 192.003906 36.957031 C 191.601562 38.1875 192.476562 39.71875 193.738281 40.007812 C 195.105469 40.320312 196.355469 39.597656 196.792969 38.273438 "/>
<path fill-rule="nonzero" fill="rgb(37.646484%, 74.118042%, 46.273804%)" fill-opacity="1" d="M 191.230469 40.832031 C 195.976562 43.582031 200.792969 40.011719 204.289062 36.941406 C 207.496094 34.125 210.324219 30.539062 211.195312 26.269531 C 211.453125 25.003906 210.828125 23.53125 209.460938 23.21875 C 208.222656 22.9375 206.683594 23.59375 206.40625 24.953125 C 206.324219 25.367188 206.222656 25.78125 206.101562 26.1875 C 206.039062 26.390625 205.972656 26.589844 205.898438 26.789062 C 205.859375 26.898438 205.695312 27.324219 205.824219 27.015625 C 205.496094 27.789062 205.070312 28.53125 204.613281 29.234375 C 203.8125 30.453125 202.65625 31.714844 201.363281 32.910156 C 199.992188 34.167969 198.953125 35.0625 197.4375 35.980469 C 196.695312 36.429688 196.066406 36.707031 195.445312 36.820312 C 194.808594 36.9375 194.160156 36.792969 193.738281 36.546875 C 192.578125 35.875 191.019531 36.277344 190.339844 37.4375 C 189.664062 38.597656 190.066406 40.160156 191.230469 40.832031 "/>
<path fill-rule="nonzero" fill="rgb(37.646484%, 74.118042%, 46.273804%)" fill-opacity="1" d="M 200.585938 37.625 C 203.082031 35.242188 205.582031 32.859375 208.078125 30.472656 C 209.019531 29.574219 209.050781 27.855469 208.078125 26.964844 C 207.070312 26.039062 205.574219 26.007812 204.570312 26.964844 C 202.070312 29.347656 199.574219 31.730469 197.074219 34.117188 C 196.136719 35.015625 196.105469 36.734375 197.074219 37.625 C 198.085938 38.554688 199.582031 38.585938 200.585938 37.625 "/>
<path fill-rule="nonzero" fill="rgb(37.646484%, 74.118042%, 46.273804%)" fill-opacity="1" d="M 191.363281 38.089844 C 189.046875 45.199219 189.457031 52.5625 191.835938 59.585938 C 192.945312 62.863281 194.375 66.195312 194.644531 69.683594 C 194.90625 73.027344 194.261719 76.347656 192.722656 79.332031 C 191.261719 82.164062 195.542969 84.679688 197.007812 81.835938 C 198.707031 78.542969 199.667969 74.917969 199.667969 71.199219 C 199.664062 67.457031 198.578125 63.890625 197.359375 60.390625 C 196.199219 57.066406 195.046875 53.742188 194.796875 50.203125 C 194.539062 46.523438 195.007812 42.914062 196.148438 39.410156 C 197.144531 36.367188 192.351562 35.0625 191.363281 38.089844 "/>
<path fill-rule="nonzero" fill="rgb(13.725281%, 12.156677%, 12.548828%)" fill-opacity="1" d="M 133.660156 43.617188 C 126.296875 45.203125 121.597656 52.066406 120.855469 59.253906 C 120.082031 66.792969 123.351562 75.472656 129.425781 80.136719 C 132.433594 82.449219 136.328125 83.726562 140.128906 83.238281 C 143.832031 82.761719 147.0625 80.699219 149.339844 77.773438 C 154.039062 71.734375 154.664062 62.421875 152.550781 55.25 C 151.398438 51.34375 149.132812 47.730469 145.628906 45.542969 C 142.035156 43.304688 137.75 42.972656 133.660156 43.617188 C 132.332031 43.824219 131.597656 45.480469 131.925781 46.667969 C 132.3125 48.082031 133.648438 48.609375 134.976562 48.402344 C 137.488281 48.007812 140.246094 48.25 142.507812 49.472656 C 144.746094 50.6875 146.304688 52.730469 147.253906 55.066406 C 148.355469 57.777344 148.671875 60.742188 148.632812 63.644531 C 148.589844 66.757812 148.160156 70.007812 146.6875 72.796875 C 145.53125 74.988281 143.730469 76.96875 141.378906 77.878906 C 138.761719 78.886719 135.851562 78.324219 133.496094 76.929688 C 128.652344 74.066406 126.015625 67.730469 125.742188 62.3125 C 125.433594 56.1875 128.582031 49.78125 134.976562 48.402344 C 138.097656 47.730469 136.777344 42.945312 133.660156 43.617188 "/>
<path fill-rule="nonzero" fill="rgb(37.646484%, 74.118042%, 46.273804%)" fill-opacity="1" d="M 78.816406 46.207031 C 79.015625 57.519531 79.210938 68.828125 79.410156 80.140625 C 79.464844 83.328125 84.429688 83.339844 84.371094 80.140625 C 84.175781 68.828125 83.976562 57.519531 83.78125 46.207031 C 83.722656 43.015625 78.761719 43.007812 78.816406 46.207031 "/>
<path fill-rule="nonzero" fill="rgb(37.646484%, 74.118042%, 46.273804%)" fill-opacity="1" d="M 58.445312 80.761719 C 59.363281 69.140625 59.160156 57.457031 57.839844 45.875 C 57.6875 44.542969 56.808594 43.394531 55.359375 43.394531 C 54.132812 43.394531 52.726562 44.535156 52.875 45.875 C 54.195312 57.457031 54.402344 69.140625 53.480469 80.761719 C 53.375 82.101562 54.699219 83.242188 55.964844 83.242188 C 57.394531 83.242188 58.339844 82.105469 58.445312 80.761719 "/>
</svg>
